<?xml version="1.0" standalone="no"?>
<!DOCTYPE svg PUBLIC "-//W3C//DTD SVG 20010904//EN"
 "http://www.w3.org/TR/2001/REC-SVG-20010904/DTD/svg10.dtd">
<svg version="1.0" xmlns="http://www.w3.org/2000/svg"
 width="173.000000pt" height="174.000000pt" viewBox="0 0 173.000000 174.000000"
 preserveAspectRatio="xMidYMid meet">

<g transform="translate(0.000000,174.000000) scale(0.100000,-0.100000)"
fill="#000000" stroke="none">
<path d="M430 1285 l-425 -425 428 -428 427 -427 427 427 428 428 -425 425
c-234 234 -427 425 -430 425 -3 0 -196 -191 -430 -425z m830 -30 l395 -395
-398 -398 -397 -397 -397 397 -398 398 395 395 c217 217 397 395 400 395 3 0
183 -178 400 -395z"/>
<path d="M683 1358 l-83 -83 0 -104 0 -104 -86 -88 c-48 -49 -91 -86 -95 -83
-5 3 -9 49 -9 102 l0 97 -85 -85 -85 -85 0 -65 0 -65 85 -85 85 -85 0 103 c0
56 4 102 9 102 4 0 47 -39 94 -87 l87 -88 0 -110 0 -110 85 -85 85 -85 0 103
c0 56 4 102 8 102 5 0 21 -13 37 -30 16 -16 34 -30 40 -30 6 0 29 17 50 37
l40 38 3 -110 3 -109 84 84 85 85 0 111 0 112 84 86 c47 47 87 86 90 86 3 0 6
-45 6 -100 0 -55 4 -100 8 -100 5 0 45 38 90 84 l82 84 0 59 0 58 -87 90 -88
90 -3 -105 -3 -104 -89 89 -90 90 0 106 0 106 -82 81 -83 82 -3 -102 -3 -101
-44 43 -45 44 -38 -37 c-21 -20 -41 -37 -45 -37 -3 0 -8 43 -9 95 l-3 96 -82
-83z m382 -298 l200 -200 -203 -202 -202 -202 -203 202 -202 202 200 200 c110
110 202 200 205 200 3 0 95 -90 205 -200z"/>
<path d="M842 1151 c-7 -21 -12 -48 -12 -61 0 -19 -4 -21 -26 -16 -48 12 -73
-37 -38 -75 16 -17 17 -17 35 4 16 19 20 20 29 7 11 -16 14 -280 3 -280 -3 0
-26 21 -50 46 -47 48 -53 81 -15 77 17 -2 22 2 22 21 0 23 -28 56 -48 56 -6 0
-18 -10 -27 -22 -13 -19 -18 -21 -33 -10 -29 21 -84 43 -91 37 -3 -4 7 -29 22
-56 l28 -50 -23 -18 c-20 -16 -21 -22 -10 -45 9 -20 19 -26 42 -26 27 0 30 3
25 20 -4 14 -1 22 10 26 12 5 37 -13 86 -62 l69 -68 0 -73 c0 -66 2 -73 20
-73 18 0 20 7 20 72 l0 71 68 69 c74 74 106 87 100 41 -3 -25 0 -28 22 -25 51
8 67 49 29 75 -20 15 -20 15 10 63 17 26 31 52 31 57 0 13 -49 -1 -81 -24 -34
-24 -41 -24 -57 1 -16 26 -37 25 -56 -2 -25 -35 -21 -57 10 -55 15 1 29 -3 31
-10 5 -13 -83 -113 -98 -113 -13 0 -11 248 2 272 11 20 11 20 34 -2 l23 -22
15 28 c10 20 12 36 6 52 -8 20 -14 23 -38 17 -27 -6 -30 -4 -36 27 -9 44 -26
88 -35 88 -4 0 -12 -17 -18 -39z"/>
</g>
</svg>
